<svg width="80" height="71" viewBox="0 0 80 71" fill="none" xmlns="http://www.w3.org/2000/svg">
<path fill-rule="evenodd" clip-rule="evenodd" d="M78.501 67.1396H49.231C61.532 61.6787 70.1289 49.3701 70.1289 35.0703C70.1289 15.7305 54.3989 0 35.0591 0C15.731 0 0 15.7305 0 35.0703C0 54.4102 15.73 70.1396 35.0591 70.1396H78.5C79.3203 70.1396 80 69.4678 80 68.6396C80 67.8115 79.3213 67.1396 78.501 67.1396ZM48.1489 18.1914C52.0005 15.9727 56.9497 17.293 59.1799 21.1523C61.3987 25.0039 60.0784 29.9531 56.219 32.1719C54.9575 32.9102 53.5708 33.25 52.1997 33.25C49.4104 33.25 46.688 31.8086 45.1997 29.2188C42.969 25.3672 44.3013 20.418 48.1489 18.1914ZM25.739 47.0391C25.1804 49.1289 23.8406 50.8672 21.9773 51.9492C20.7078 52.6797 19.3171 53.0273 17.9578 53.0273C15.157 53.0273 12.4382 51.5781 10.946 48.9883C8.72729 45.1367 10.0476 40.1875 13.907 37.9678C17.7585 35.7373 22.7078 37.0576 24.927 40.917C26.0051 42.7881 26.2981 44.9561 25.739 47.0391ZM24.9304 29.2188C23.4421 31.8086 20.7195 33.25 17.9304 33.25C16.5593 33.25 15.1687 32.9102 13.9109 32.1719C10.0515 29.9531 8.7312 25 10.95 21.1523C13.1804 17.293 18.1218 15.9727 21.981 18.1914C23.8403 19.2695 25.1802 21.0117 25.7427 23.1016C26.3013 25.1797 26.0122 27.3516 24.9304 29.2188ZM35.0593 62.9102C30.6101 62.9102 26.989 59.2891 26.989 54.8398C26.989 50.3906 30.6101 46.7695 35.0593 46.7695C39.5085 46.7695 43.1375 50.3906 43.1375 54.8398C43.1375 59.2891 39.5085 62.9102 35.0593 62.9102ZM29.6804 35.0703C29.6804 32.1016 32.0908 29.6797 35.0593 29.6797C38.0398 29.6797 40.45 32.1016 40.45 35.0703C40.45 38.0391 38.0398 40.4609 35.0593 40.4609C32.0906 40.4609 29.6804 38.0391 29.6804 35.0703ZM35.0593 23.3711C30.6101 23.3711 26.989 19.75 26.989 15.3008C26.989 10.8516 30.6101 7.23047 35.0593 7.23047C39.5085 7.23047 43.1375 10.8516 43.1375 15.3008C43.1375 19.75 39.5085 23.3711 35.0593 23.3711ZM45.2004 40.9219C47.4192 37.0703 52.3723 35.7422 56.2205 37.9727C60.0798 40.1914 61.4001 45.1445 59.1814 48.9932C57.6814 51.583 54.9705 53.0322 52.1697 53.0322C51.4109 53.0322 50.6497 52.9248 49.906 52.7051C49.3059 52.5283 48.717 52.2783 48.1501 51.9541C44.2986 49.7236 42.97 44.7734 45.2004 40.9219ZM46.0601 41.4219C44.4194 44.2617 44.9897 47.7812 47.2319 49.9922C50.9233 46.9922 53.3335 42.8203 54.0835 38.1523C51.0525 37.3125 47.7124 38.5742 46.0601 41.4219ZM28.2202 53.0703C29.0093 50.0312 31.7788 47.7695 35.0601 47.7695C38.3491 47.7695 41.1189 50.0312 41.9001 53.0703C37.5093 54.7422 32.6187 54.7422 28.2202 53.0703ZM16.052 38.1484C16.802 42.8203 19.2122 46.9883 22.9036 49.9893C25.1418 47.7783 25.7122 44.2695 24.0754 41.4189C22.427 38.5664 19.0872 37.3096 16.052 38.1484ZM24.0715 28.7227C22.4231 31.5703 19.0833 32.832 16.052 31.9922C16.7981 27.3242 19.2083 23.1523 22.8997 20.1523C25.1418 22.3633 25.7122 25.8711 24.0715 28.7227ZM28.22 17.0703C29.009 20.1094 31.7786 22.3711 35.0596 22.3711C38.3489 22.3711 41.1182 20.1094 41.8994 17.0703C37.5088 15.3984 32.6187 15.3984 28.22 17.0703ZM47.2275 20.1523C50.9189 23.1523 53.3291 27.3203 54.0791 31.9922C51.0439 32.832 47.7041 31.5742 46.0557 28.7227C44.4189 25.8828 44.9893 22.3633 47.2275 20.1523Z" fill="#34AD40"/>
</svg>
